<svg width="140" height="43" viewBox="0 0 140 43" fill="none" xmlns="http://www.w3.org/2000/svg">
<path d="M8 25.1255H14.2017C14.3462 26.3988 14.8947 27.5514 15.7957 28.4712C16.8682 29.5653 18.3298 30.193 19.8056 30.193C21.2686 30.193 22.6728 29.5819 23.7616 28.4712C24.8294 27.3819 25.3947 25.9867 25.3947 24.4365V13.1785H31.5775V24.4365C31.5775 31.088 26.2971 36.5 19.8063 36.5C13.5992 36.5 8.35527 31.4208 8 25.1255ZM58.9353 26.9713C58.9353 26.9713 42.6294 26.8459 41.6 26.8459C41.8729 27.8856 42.4551 28.6828 43.0812 29.38C44.3375 30.7835 45.9416 31.5248 47.7213 31.5248C49.1688 31.5248 50.6527 30.9371 51.8211 29.9071L56.0013 32.765C53.8109 35.142 50.7101 36.5 47.4485 36.5C40.8814 36.5 35.5388 31.0501 35.5388 24.3511C35.5388 17.6521 40.8814 12.2015 47.4485 12.2015C54.0156 12.2015 59.2176 17.6514 59.2176 24.3504C59.2183 25.51 59.0049 26.5565 58.9353 26.9713ZM53.9993 22.5542L53.9136 22.24C53.6063 21.1115 53.0504 20.0828 52.3081 19.2671C51.1234 17.9387 49.4518 17.1767 47.7213 17.1767C45.9902 17.1767 44.3409 17.9201 43.0691 19.2808C42.3963 20.0814 41.7858 21.1108 41.4832 22.2111C41.4609 22.291 41.4163 22.5363 41.4163 22.5363L53.9993 22.5542ZM63.9435 6.35338V35.8317H69.7481V6.35338H63.9435ZM114.538 36.5C120.795 36.5 126.284 30.8228 126.284 24.3511V13.0365H120.479V24.183C120.479 25.9185 119.871 27.6445 118.81 28.917C117.67 30.2027 116.075 30.9674 114.538 30.9674C113.004 30.9674 111.435 30.2295 110.234 28.9425C109.189 27.6134 108.597 25.8848 108.597 24.183V13.0365H102.792V24.3504C102.792 30.8227 108.28 36.5 114.538 36.5ZM19.7887 4.5C17.4795 4.5 15.6012 6.41607 15.6012 8.77172C15.6012 11.1274 17.4795 13.0441 19.7887 13.0441C22.098 13.0441 23.9763 11.1274 23.9763 8.77172C23.9763 6.41607 22.098 4.5 19.7887 4.5ZM98.6877 24.4062C98.6877 31.1879 93.2168 36.5 86.2323 36.5C82.8964 36.5 79.7753 35.2467 77.4424 32.971C75.1136 30.6987 73.831 27.6569 73.831 24.4062C73.831 17.7375 79.3937 12.3124 86.2323 12.3124C93.1007 12.3124 98.6877 17.7382 98.6877 24.4062ZM92.9926 24.3504C92.9926 22.4536 92.3138 20.6836 91.0811 19.3677C89.7533 17.9511 88.1404 17.2325 86.287 17.2325C84.4648 17.2325 82.7586 18.0097 81.6206 19.349C80.3062 20.6313 79.5815 22.4274 79.5815 24.4069C79.5815 26.3919 80.2792 28.1529 81.5915 29.4909C82.7762 30.8193 84.4877 31.5813 86.287 31.5813C88.1161 31.5813 89.7296 30.8806 91.0832 29.4999L91.0906 29.4916C92.3172 28.1205 92.9926 26.2954 92.9926 24.3504Z" fill="#00B3C7"/>
<path d="M127.475 34.1926C127.475 32.9186 128.488 31.8852 129.733 31.8831C130.986 31.881 132 32.9193 132 34.1912C132 35.4631 130.986 36.5014 129.733 36.4993C128.488 36.4979 127.476 35.4651 127.475 34.1926ZM131.461 34.1926C131.457 33.2239 130.696 32.435 129.738 32.4343C128.788 32.4336 128.015 33.2142 128.014 34.1912C128.014 35.1599 128.778 35.9488 129.737 35.9495C130.685 35.9502 131.456 35.1709 131.461 34.1926Z" fill="#00B3C7"/>
<path d="M130.798 35.2998C130.784 35.3005 130.776 35.3012 130.768 35.3012C130.599 35.3012 130.429 35.3012 130.259 35.3019C130.237 35.3019 130.223 35.2943 130.21 35.2757C130.076 35.0869 129.941 34.8988 129.807 34.71C129.792 34.6893 129.777 34.6818 129.752 34.6818C129.638 34.6838 129.525 34.6838 129.411 34.6825C129.387 34.6825 129.378 34.688 129.379 34.7148C129.38 34.9016 129.379 35.0876 129.38 35.2743C129.38 35.2963 129.373 35.3012 129.353 35.3012C129.217 35.3005 129.081 35.3005 128.945 35.3012C128.926 35.3012 128.919 35.297 128.919 35.2757C128.92 34.5522 128.92 33.8281 128.919 33.1047C128.919 33.0868 128.924 33.0812 128.942 33.0812C129.227 33.0819 129.512 33.0785 129.798 33.0847C129.975 33.0881 130.143 33.135 130.292 33.237C130.438 33.3376 130.532 33.4774 130.576 33.6517C130.611 33.793 130.612 33.9356 130.581 34.0768C130.54 34.2642 130.445 34.4172 130.286 34.5254C130.266 34.5391 130.262 34.5488 130.278 34.5708C130.447 34.8044 130.614 35.0393 130.782 35.2736C130.786 35.2812 130.79 35.2881 130.798 35.2998ZM129.379 33.8825C129.379 33.9831 129.379 34.0837 129.378 34.1836C129.378 34.2064 129.385 34.2126 129.407 34.2126C129.512 34.2119 129.617 34.2126 129.722 34.2119C129.804 34.2119 129.884 34.2036 129.96 34.1726C130.045 34.1375 130.103 34.0782 130.128 33.9866C130.143 33.9294 130.143 33.8722 130.137 33.8143C130.13 33.7496 130.104 33.6931 130.056 33.649C129.987 33.5863 129.903 33.5615 129.814 33.5573C129.677 33.5511 129.539 33.5532 129.402 33.5504C129.381 33.5504 129.379 33.5608 129.379 33.5773C129.379 33.68 129.379 33.7813 129.379 33.8825Z" fill="#00B3C7"/>
</svg>